<?xml version="1.0" encoding="UTF-8"?>
<svg version="1.1" xmlns="http://www.w3.org/2000/svg" width="1024" height="1024">
<path d="M0 0 C29.37 0 58.74 0 89 0 C89.06625763 36.84162167 89.12160328 73.68318671 89.15319599 110.52485101 C89.15694767 114.88399908 89.16083068 119.24314703 89.16479492 123.60229492 C89.16558185 124.47004592 89.16636878 125.33779691 89.16717956 126.23184339 C89.18019875 140.24357218 89.20383316 154.25526368 89.23145839 168.26697042 C89.25961002 182.66681752 89.27619678 197.06664522 89.28226548 211.4665187 C89.28636179 220.33693276 89.29925303 229.20724137 89.3237494 238.07762293 C89.33972736 244.17777678 89.3443734 250.2778769 89.34050413 256.37805011 C89.33860112 259.88646043 89.3413128 263.39468778 89.35761642 266.90306473 C89.5438349 313.96230258 77.36951636 359.74037661 46 396 C45.07730304 397.10369651 44.15683153 398.20925629 43.23828125 399.31640625 C35.19488479 408.98800948 26.86684056 417.17059794 17 425 C15.98679687 425.81855469 14.97359375 426.63710938 13.9296875 427.48046875 C-27.05342421 460.19199288 -80.13656993 473.14929656 -131.82592773 468.22460938 C-179.55096146 462.86233018 -228.40813515 438.69124277 -259 401 C-259.88773012 399.94767136 -260.77578115 398.89561339 -261.6640625 397.84375 C-290.19743324 363.61592095 -306.24669784 321.14325724 -306.11352539 276.54223633 C-306.11367142 275.24340515 -306.11381744 273.94457397 -306.1139679 272.60638428 C-306.11425225 269.08027441 -306.10841455 265.55419926 -306.10139394 262.02809739 C-306.09509964 258.32990592 -306.09455183 254.63171346 -306.09336853 250.93351746 C-306.09027301 243.94630585 -306.08208382 236.95911008 -306.07201904 229.97190541 C-306.05870089 220.51889431 -306.05334361 211.06587881 -306.04751682 201.61286068 C-306.03814255 186.74189528 -306.01821182 171.87096329 -306 157 C-276.63 157 -247.26 157 -217 157 C-216.96261719 166.11496094 -216.92523437 175.22992187 -216.88671875 184.62109375 C-216.85641502 190.42254079 -216.82537049 196.2239685 -216.79101562 202.02539062 C-216.73671583 211.21783623 -216.68529577 220.41022827 -216.65356445 229.6027832 C-216.63043146 236.30035584 -216.5968664 242.9977855 -216.55129844 249.69524437 C-216.52757002 253.23428869 -216.50870908 256.77319323 -216.50238609 260.31231499 C-216.42684212 297.61288747 -209.07452321 327.83121166 -181.921875 355.0859375 C-167.33426043 368.75507263 -149.28871024 376.63008513 -130 381 C-128.8718689 381.26369385 -128.8718689 381.26369385 -127.72094727 381.53271484 C-122.5942179 382.41315989 -117.39190785 382.2255533 -112.20214844 382.24023438 C-110.1655786 382.24980922 -108.13007781 382.28080618 -106.09375 382.3125 C-93.29369479 382.41788502 -81.24293955 380.33373224 -69.25 375.6875 C-68.4448999 375.38118652 -67.6397998 375.07487305 -66.81030273 374.75927734 C-39.98530113 364.32327893 -20.52786354 344.0887423 -8.86816406 318.06152344 C-2.96829955 304.05183392 -0.69434713 289.69699492 -0.7215271 274.5410614 C-0.7128385 272.76643083 -0.7128385 272.76643083 -0.70397437 270.95594913 C-0.69003605 267.71303506 -0.6847538 264.470248 -0.68332577 261.22730887 C-0.67959975 257.71486927 -0.66442877 254.20247569 -0.65071106 250.69006348 C-0.62853404 244.61814046 -0.61346358 238.54623403 -0.60334396 232.4742794 C-0.58870259 223.69546793 -0.5631508 214.91671428 -0.53501268 206.13793693 C-0.48964338 191.89185939 -0.452988 177.64577349 -0.421875 163.3996582 C-0.39164893 149.56826306 -0.35728013 135.73688835 -0.31738281 121.90551758 C-0.31492126 121.05166525 -0.31245972 120.19781293 -0.30992357 119.31808629 C-0.29754819 115.03417589 -0.2850918 110.75026573 -0.27259517 106.46635568 C-0.16917517 70.97759466 -0.08154006 35.48881936 0 0 Z " fill="#ffcc33" transform="translate(797,379)"/>
<path d="M0 0 C48.84 0 97.68 0 148 0 C148.375 68 148.375 68 148.47802734 89.390625 C148.51798169 95.77442233 148.51798169 95.77442233 148.56045532 102.15820312 C148.57915727 104.97916216 148.59260103 107.80009102 148.60269165 110.62109375 C148.56549428 132.3966247 148.56549428 132.3966247 151 154 C151.14855942 154.89765579 151.29711884 155.79531158 151.45018005 156.72016907 C158.28127496 196.71605839 176.08614669 235.41465847 204 265 C205.06628181 266.26766191 206.12885756 267.53845141 207.1875 268.8125 C220.02870503 283.45029564 235.92606338 294.78730149 252.03662109 305.52392578 C256.89524202 308.79048404 256.89524202 308.79048404 258 311 C129.63 311 1.26 311 -131 311 C-131 257.87 -131 204.74 -131 150 C-87.77 150 -44.54 150 0 150 C0 100.5 0 51 0 0 Z " fill="#1976d2" transform="translate(311,535)"/>
<path d="M0 0 C50.49 0 100.98 0 153 0 C153.1613254 70.54401078 153.1613254 70.54401078 153.1953125 100.07421875 C153.20314305 106.83251992 153.21122471 113.59082073 153.21972656 120.34912109 C153.22078156 121.19607115 153.22183655 122.04302121 153.22292352 122.91563642 C153.24028311 136.55845552 153.27179744 150.20120664 153.30861118 163.84398554 C153.34612243 177.86300206 153.36825729 191.88198319 153.37635398 205.90104783 C153.38182072 214.53965193 153.39903657 223.17806389 153.43166587 231.8166088 C153.45293976 237.75415881 153.4591712 243.69161064 153.45400551 249.62919591 C153.45146349 253.04623084 153.45738113 256.46266504 153.4768219 259.87968445 C153.62960928 288.13707863 149.87017432 310.43200903 129.69921875 331.390625 C113.14595405 347.32077172 92.09393096 352.5922173 69.65625 352.26953125 C49.55012473 351.59108321 31.39272494 341.11824573 17.8125 326.75 C7.57592425 314.6045546 -0.13010261 299.10589079 -0.12304783 282.88695812 C-0.12503888 281.87378495 -0.12702993 280.86061179 -0.12908131 279.8167364 C-0.12616847 278.7107075 -0.12325563 277.6046786 -0.12025452 276.46513367 C-0.12110894 275.28479846 -0.12196337 274.10446326 -0.12284368 272.88836032 C-0.12420582 269.61598906 -0.12108121 266.34365743 -0.11606562 263.07129085 C-0.11174678 259.54101175 -0.11320857 256.01073449 -0.1139679 252.48045349 C-0.11449222 246.36527252 -0.11135496 240.25010222 -0.10573006 234.13492393 C-0.09760269 225.29340543 -0.09499857 216.45189209 -0.09374207 207.61037026 C-0.0915535 193.26555316 -0.08489868 178.92074175 -0.07543945 164.57592773 C-0.0662603 150.64135771 -0.05919339 136.70678923 -0.05493164 122.7722168 C-0.05466364 121.90451591 -0.05439565 121.03681503 -0.05411953 120.14282018 C-0.0520401 113.35681934 -0.05008318 106.57081846 -0.04816496 99.78481758 C-0.03873145 66.5232065 -0.0186131 33.26160966 0 0 Z " fill="#1976d2" transform="translate(612,379)"/>
<path d="M0 0 C16.5 0 33 0 50 0 C63.08010563 17.44014085 63.08010563 17.44014085 69.3828125 26.3203125 C72.33569068 30.48067046 75.32327643 34.61571274 78.3125 38.75 C78.860271 39.50780762 79.40804199 40.26561523 79.97241211 41.04638672 C81.09038993 42.59284925 82.20847322 44.13923554 83.32666016 45.68554688 C86.05263139 49.45593019 88.77621534 53.22803694 91.5 57 C92.58332144 58.50000859 93.66665479 60.00000858 94.75 61.5 C117.5 93 117.5 93 140.25 124.5 C141.05473755 125.6142334 141.05473755 125.6142334 141.87573242 126.75097656 C142.95667191 128.24768701 144.03756401 129.74443168 145.1184082 131.24121094 C147.8629754 135.04182637 150.60841966 138.84180298 153.35546875 142.640625 C158.65621811 149.97250262 163.94678705 157.31094636 169.1965332 164.67944336 C172.5674928 169.40635742 175.97022626 174.10990663 179.375 178.8125 C184.12169334 185.37116293 188.81251071 191.96642291 193.46899414 198.58935547 C197.71938362 204.62528709 202.03456876 210.613064 206.37304688 216.5859375 C210.31225412 222.01688561 214.15076988 227.50109983 218 233 C218.33 156.11 218.66 79.22 219 0 C235.5 0 252 0 269 0 C269 104.61 269 209.22 269 317 C251.18 317 233.36 317 215 317 C211.7 312.38 208.4 307.76 205 303 C202.8987221 300.08115173 200.7958733 297.16369361 198.6875 294.25 C197.57681261 292.71354911 196.46613584 291.17709056 195.35546875 289.640625 C194.80036621 288.87298828 194.24526367 288.10535156 193.67333984 287.31445312 C190.94736861 283.54406981 188.22378466 279.77196306 185.5 276 C184.41667856 274.49999141 183.33334521 272.99999142 182.25 271.5 C175.75 262.5 175.75 262.5 174.12524414 260.25024414 C173.04121584 258.7493445 171.95706858 257.24853078 170.87280273 255.74780273 C168.17412345 252.01226033 165.47748688 248.27527746 162.78515625 244.53515625 C157.17096822 236.74084153 151.52114617 228.975464 145.8125 221.25 C140.99713071 214.73277127 136.24135527 208.17886685 131.546875 201.57421875 C128.61457267 197.45110426 125.65151724 193.35034806 122.6875 189.25 C122.13956787 188.49195068 121.59163574 187.73390137 121.02709961 186.95288086 C119.90927547 185.40666903 118.79135496 183.86052687 117.67333984 182.31445312 C115.48733752 179.29091913 113.30288938 176.26626449 111.11865234 173.24145508 C110.03711318 171.74377619 108.95540669 170.24621811 107.87353516 168.7487793 C105.17458827 165.01292827 102.47772458 161.27560767 99.78515625 157.53515625 C94.23195376 149.82537027 88.64562795 142.14242369 83 134.5 C76.26431113 125.38197299 69.62553287 116.19855534 63 107 C58.71 101.06 54.42 95.12 50 89 C49.67 164.24 49.34 239.48 49 317 C32.83 317 16.66 317 0 317 C0 212.39 0 107.78 0 0 Z " fill="#1976d2" transform="translate(311,187)"/>
</svg>
