<?xml version="1.0" encoding="UTF-8"?>
<svg version="1.1" xmlns="http://www.w3.org/2000/svg" width="1536" height="1024">
<path d="M0 0 C34.32 0 68.64 0 104 0 C126.11539728 22.92946099 126.11539728 22.92946099 131.1887207 38.8059082 C133.39322158 45.60141218 137.17356072 50.49721391 141.53125 56.04602051 C144.55577684 60.06975731 147.25245795 64.32242246 150.00390625 68.53515625 C150.61806396 69.4702301 151.23222168 70.40530396 151.86499023 71.36871338 C153.76681585 74.26491048 155.66495672 77.16349574 157.5625 80.0625 C167.99923099 96.01394411 167.99923099 96.01394411 178.75341797 111.75146484 C183.07744032 118.00395794 187.25955985 124.35238974 191.46368408 130.68585205 C193.91945775 134.38497638 196.37976314 138.08108292 198.83984375 141.77734375 C199.32880127 142.51210434 199.81775879 143.24686493 200.3215332 144.00389099 C212.79826906 162.75046976 225.34364654 181.4494469 237.95288086 200.10717773 C245.34338133 211.04442648 252.68591197 222.01134919 260 233 C270.89 249.335 270.89 249.335 282 266 C282.33 178.22 282.66 90.44 283 0 C316 0 349 0 383 0 C383 160.38 383 320.76 383 486 C356.27 486 329.54 486 302 486 C293.04499451 473.68686746 293.04499451 473.68686746 290.17578125 469.3125 C287.09447731 464.64890485 283.98805449 460.00420505 280.85546875 455.375 C280.17762329 454.37292259 280.17762329 454.37292259 279.48608398 453.3506012 C278.05359477 451.23348204 276.62056025 449.11673266 275.1875 447 C274.1609511 445.48300436 273.13442149 443.96599567 272.10791016 442.44897461 C266.77155112 434.56396523 261.42911353 426.68312402 256.07910156 418.80737305 C236.38448063 389.81299923 216.77633558 360.76050844 197.38647461 331.5612793 C192.87086675 324.76611706 188.33799382 317.99545349 183.62792969 311.33276367 C180.4363857 306.75939792 177.3883999 302.08903546 174.3125 297.4375 C169.10306432 289.58717822 163.84041203 281.78936191 158.33325195 274.14428711 C154.8718272 269.31814292 151.57412786 264.3880937 148.28863525 259.44143677 C144.53654198 253.79507537 140.75332823 248.1701446 136.9609375 242.55078125 C136.34465485 241.63747543 135.72837219 240.72416962 135.09341431 239.78318787 C133.18759416 236.95941046 131.28135674 234.13591517 129.375 231.3125 C127.4557139 228.46973342 125.53656536 225.62687442 123.61782837 222.78373718 C122.43600476 221.03255098 121.2538829 219.281566 120.07138062 217.53083801 C115.68878722 211.03704606 111.34591794 204.51887691 107 198 C106.67 292.71 106.34 387.42 106 485 C71.02 485 36.04 485 0 485 C0 324.95 0 164.9 0 0 Z " fill="#0A2743" transform="translate(350,251)"/>
<path d="M0 0 C37.95 0 75.9 0 115 0 C115.08842812 40.74801774 115.16218928 81.4959439 115.20426132 122.24403036 C115.20926325 127.07097158 115.21444063 131.8979126 115.21972656 136.72485352 C115.2207758 137.68568108 115.22182505 138.64650864 115.22290608 139.63645219 C115.24024087 155.12873858 115.27173969 170.6209647 115.30861118 186.11321551 C115.34621461 202.04766631 115.36827651 217.98208586 115.37635398 233.91657919 C115.38180186 243.72363125 115.39891259 253.53051286 115.43166587 263.33751237 C115.45305429 270.09184976 115.45914608 276.84610098 115.45400551 283.60046966 C115.45148085 287.47876171 115.45493009 291.3567592 115.4768219 295.2349968 C115.81252646 357.97515773 98.97466676 417.77904795 54.125 463.3125 C46.63497725 470.75215379 38.8466973 477.24785593 30 483 C29.11030518 483.58418701 29.11030518 483.58418701 28.20263672 484.18017578 C-21.41875428 516.3593854 -83.79830237 522.78575945 -140.875 510.75 C-170.07260343 504.15804667 -198.33165235 491.90093716 -221 472 C-221.79019531 471.31808594 -222.58039063 470.63617187 -223.39453125 469.93359375 C-225.97209368 467.66452698 -228.49290406 465.34667165 -231 463 C-231.94875 462.11699219 -232.8975 461.23398437 -233.875 460.32421875 C-245.57384973 449.18327876 -255.12011316 436.08392969 -263 422 C-263.45375 421.19208008 -263.9075 420.38416016 -264.375 419.55175781 C-272.00843912 405.81057347 -278.26043045 391.99199184 -283 377 C-283.24830566 376.22301758 -283.49661133 375.44603516 -283.75244141 374.64550781 C-290.62047633 352.58973938 -293.17591745 328.63698997 -293.12025452 305.60469055 C-293.12153615 303.64273807 -293.12153615 303.64273807 -293.12284368 301.64115018 C-293.12506332 298.04029127 -293.12110233 294.43946251 -293.11606562 290.83860743 C-293.11172467 286.94442223 -293.11321012 283.05023857 -293.1139679 279.15605164 C-293.11449083 272.418919 -293.11136816 265.6817961 -293.10573006 258.94466591 C-293.09758376 249.20405076 -293.09499663 239.46344028 -293.09374207 229.72282209 C-293.09155646 213.91718147 -293.08490971 198.11154602 -293.07543945 182.3059082 C-293.06625262 166.95727565 -293.05917801 151.60864451 -293.05493164 136.26000977 C-293.05466892 135.31303513 -293.05440619 134.36606049 -293.05413551 133.39038966 C-293.05283042 128.63943199 -293.05156672 123.88847431 -293.05032361 119.13751662 C-293.03996629 79.75833981 -293.02153624 40.37917259 -293 1 C-254.06 1 -215.12 1 -175 1 C-174.98018066 10.36238037 -174.96036133 19.72476074 -174.93994141 29.37084961 C-174.8750508 59.37150865 -174.80051274 89.37213685 -174.71994839 119.37275773 C-174.70743043 124.03748608 -174.69499751 128.70221465 -174.68261719 133.36694336 C-174.68015119 134.29555589 -174.6776852 135.22416842 -174.67514448 136.18092073 C-174.63548627 151.19116737 -174.60270833 166.20142147 -174.57250018 181.21168976 C-174.5413196 196.62855336 -174.50268225 212.04538545 -174.45720994 227.46221358 C-174.42941303 236.96520602 -174.40734214 246.46817558 -174.39273749 255.97119761 C-174.38214604 262.49930825 -174.36427211 269.02737442 -174.34083296 275.55545145 C-174.32754629 279.3144395 -174.31731529 283.0733656 -174.31578636 286.83237839 C-174.44960274 313.51348894 -174.44960274 313.51348894 -169.75 339.6875 C-169.53239014 340.47729248 -169.31478027 341.26708496 -169.09057617 342.08081055 C-163.27465415 362.45820034 -152.60829325 379.24600813 -134.4375 390.75 C-113.09615475 402.50441282 -85.24258752 406.20662662 -61.6875 399.9375 C-49.95931069 396.51231012 -39.14413985 391.2005607 -30 383 C-29.24074219 382.32195312 -28.48148438 381.64390625 -27.69921875 380.9453125 C-8.57908653 362.88562459 -1.51285031 335.66198878 -0.71438026 310.11789703 C-0.57000983 302.70495462 -0.55970296 295.29259803 -0.56726015 287.87855983 C-0.56789235 284.00290506 -0.55118708 280.1273163 -0.53674316 276.25169373 C-0.51410641 269.56055437 -0.5020981 262.86946655 -0.49761391 256.17829132 C-0.49111494 246.50436639 -0.46811247 236.83053404 -0.44127061 227.1566467 C-0.39814575 211.45584397 -0.36809768 195.75504517 -0.34643555 180.05419922 C-0.32538276 164.81557282 -0.2980704 149.57697851 -0.26245117 134.33837891 C-0.26025235 133.39675578 -0.25805352 132.45513265 -0.25578807 131.48497549 C-0.24471734 126.76043734 -0.23352474 122.0358995 -0.22227156 117.31136179 C-0.12928925 78.20759397 -0.06003625 39.10383501 0 0 Z " fill="#CCA748" transform="translate(1077,250)"/>
<path d="M0 0 C32.67 0 65.34 0 99 0 C99 160.38 99 320.76 99 486 C72.93 485.67 46.86 485.34 20 485 C20 484.67 20 484.34 20 484 C45.41 484 70.82 484 97 484 C97 324.94 97 165.88 97 2 C65.32 2 33.64 2 1 2 C1 89.78 1 177.56 1 268 C0.67 268 0.34 268 0 268 C0 179.56 0 91.12 0 0 Z " fill="#0E1F39" transform="translate(634,251)"/>
<path d="M0 0 C0.95018005 0.00359528 1.90036011 0.00719055 2.8793335 0.01089478 C4.37184883 0.01067574 4.37184883 0.01067574 5.89451599 0.01045227 C9.20059348 0.01115186 12.5066154 0.01894637 15.81268311 0.02676392 C18.09811879 0.02862793 20.38355487 0.03005191 22.66899109 0.03105164 C28.69751073 0.03487809 34.72600644 0.04470947 40.7545166 0.05575562 C46.90085527 0.06596699 53.04719778 0.07054867 59.19354248 0.07559204 C71.26321447 0.08633162 83.33286868 0.10340957 95.40252686 0.12442017 C96.76411415 2.84759475 96.5284664 4.98261458 96.5295105 8.03317261 C96.53374401 9.94058353 96.53374401 9.94058353 96.53806305 11.88652802 C96.53611489 13.31510939 96.53406379 14.74369063 96.53192139 16.17227173 C96.53325813 17.68491914 96.53501738 19.19756623 96.53716278 20.71021271 C96.54173848 24.91381053 96.53981642 29.11738462 96.53675127 33.32098293 C96.53483713 36.97332875 96.53646534 40.62566968 96.5380882 44.27801538 C96.5425431 54.40232303 96.53940966 64.5266169 96.5330919 74.65092301 C96.52842833 82.2046704 96.52603987 89.75841562 96.52484131 97.31216431 C96.50850129 184.08342007 96.21892729 270.85383431 95.40252686 488.12442017 C88.45764076 488.70494481 81.56344587 489.25087827 74.5927124 489.23794556 C73.91781769 489.23809158 73.24292297 489.23823761 72.5475769 489.23838806 C70.37809711 489.2377068 68.20870986 489.23000116 66.03924561 489.22207642 C64.51082913 489.22020584 62.98241205 489.21878497 61.45399475 489.2177887 C57.47734858 489.2140138 53.50074032 489.20422796 49.52410889 489.19308472 C45.44777946 489.18276101 41.37144377 489.17826786 37.29510498 489.17324829 C29.33089509 489.16259992 21.36671572 489.14558582 13.40252686 489.12442017 C13.40252686 488.79442017 13.40252686 488.46442017 13.40252686 488.12442017 C40.42237631 487.20517809 67.34961096 487.12442017 94.40252686 487.12442017 C94.40252686 326.74442017 94.40252686 166.36442017 94.40252686 1.12442017 C61.40252686 1.12442017 28.40252686 1.12442017 -5.59747314 1.12442017 C-5.59747314 89.56442017 -5.59747314 178.00442017 -5.59747314 269.12442017 C-8.97247955 264.62441162 -8.97247955 264.62441162 -8.95379257 260.51203632 C-8.95689902 259.5850724 -8.96000547 258.65810847 -8.96320605 257.70305473 C-8.9512587 256.68817786 -8.93931135 255.673301 -8.92700195 254.62767029 C-8.92618724 253.54690033 -8.92537253 252.46613037 -8.92453313 251.35260981 C-8.91808762 247.7188136 -8.89003219 244.08550288 -8.86212158 240.45181274 C-8.85305349 237.85189726 -8.8452978 235.25197691 -8.83876038 232.65205383 C-8.82039332 226.31679526 -8.78599088 219.98171966 -8.74628201 213.64656285 C-8.70071087 206.27445501 -8.67131626 198.90230967 -8.64270678 191.53011974 C-8.59116159 178.3815489 -8.5254203 165.23308759 -8.45147705 152.08462524 C-8.37967647 139.31414927 -8.31701511 126.54367384 -8.26495361 113.77310181 C-8.26174385 112.98615127 -8.25853409 112.19920074 -8.25522706 111.38840321 C-8.24876758 109.80316818 -8.24230875 108.21793314 -8.23585059 106.6326981 C-8.23266341 105.8507901 -8.22947623 105.0688821 -8.22619247 104.26327991 C-8.22301667 103.4833961 -8.21984086 102.70351228 -8.21656881 101.89999561 C-8.16673931 89.74407473 -8.10926539 77.58818851 -8.05071656 65.43230692 C-8.02953144 61.02034215 -8.009341 56.60837412 -7.98983207 52.19640163 C-7.95593537 44.54901 -7.91679852 36.90167036 -7.87186241 29.2543354 C-7.85765568 26.70853313 -7.84515338 24.16272072 -7.83442879 21.6169014 C-7.81953973 18.15796215 -7.79855488 14.69911476 -7.77587891 11.24021912 C-7.77285444 10.21865009 -7.76982997 9.19708106 -7.76671386 8.14455539 C-7.75938932 7.2254147 -7.75206478 6.30627402 -7.74451828 5.35928059 C-7.74023402 4.55985926 -7.73594976 3.76043793 -7.73153567 2.93679172 C-7.40976839 -1.41313273 -3.48156456 0.00556757 0 0 Z " fill="#FBFAF1" transform="translate(638.5974731445313,249.87557983398438)"/>
</svg>
